<svg width="32" height="32" viewBox="0 0 32 32" fill="none" xmlns="http://www.w3.org/2000/svg">
<path opacity="0.5" d="M7.33335 17.3333C6.96516 17.3333 6.66669 17.0348 6.66669 16.6666V15.3333C6.66669 14.9651 6.96516 14.6666 7.33335 14.6666H24C24.7364 14.6666 25.3334 15.2636 25.3334 16C25.3334 16.7364 24.7364 17.3333 24 17.3333H7.33335Z" fill="white"/>
<path d="M15.0572 23.0572C14.5365 23.5779 14.5365 24.4221 15.0572 24.9428C15.5779 25.4635 16.4221 25.4635 16.9428 24.9428L24.9428 16.9428C25.4476 16.438 25.4652 15.6252 24.9829 15.099L17.6495 7.09901C17.1519 6.55619 16.3085 6.51952 15.7657 7.01711C15.2229 7.5147 15.1862 8.35812 15.6838 8.90095L22.1545 15.9599L15.0572 23.0572Z" fill="white"/>
</svg>
