<svg width="14" height="15" viewBox="0 0 14 15" fill="none" xmlns="http://www.w3.org/2000/svg">
<path opacity="0.5" d="M3.28584 8C3.12804 8 3.00012 7.87208 3.00012 7.71429V7.14286C3.00012 6.98506 3.12804 6.85714 3.28584 6.85714H10.4287C10.7443 6.85714 11.0001 7.11298 11.0001 7.42857V7.42857C11.0001 7.74416 10.7443 8 10.4287 8H3.28584Z" fill="#04D361"/>
<path d="M6.59606 10.4532C6.3729 10.6764 6.3729 11.0382 6.59606 11.2613C6.81922 11.4845 7.18103 11.4845 7.40418 11.2613L10.8328 7.83277C11.0491 7.61644 11.0567 7.26811 10.8499 7.04258L7.70707 3.61401C7.49381 3.38137 7.13235 3.36566 6.89971 3.57891C6.66707 3.79216 6.65135 4.15363 6.8646 4.38627L9.63776 7.41152L6.59606 10.4532Z" fill="#04D361"/>
</svg>
