<svg width="18" height="18" viewBox="0 0 18 18" fill="none" xmlns="http://www.w3.org/2000/svg">
<path opacity="0.5" d="M5.28584 10C5.12804 10 5.00012 9.87208 5.00012 9.71429V9.14286C5.00012 8.98506 5.12804 8.85714 5.28584 8.85714H12.4287C12.7443 8.85714 13.0001 9.11298 13.0001 9.42857V9.42857C13.0001 9.74416 12.7443 10 12.4287 10H5.28584Z" fill="white"/>
<path d="M8.59606 12.4532C8.3729 12.6764 8.3729 13.0382 8.59606 13.2613C8.81922 13.4845 9.18103 13.4845 9.40418 13.2613L12.8328 9.83277C13.0491 9.61644 13.0567 9.26811 12.8499 9.04258L9.70707 5.61401C9.49381 5.38137 9.13235 5.36566 8.89971 5.57891C8.66707 5.79216 8.65135 6.15363 8.8646 6.38627L11.6378 9.41152L8.59606 12.4532Z" fill="white"/>
</svg>
