<svg width="14" height="14" viewBox="0 0 14 14" fill="none" xmlns="http://www.w3.org/2000/svg">
<path d="M8.00918 12.25C7.90662 12.4268 7.75942 12.5735 7.58231 12.6756C7.4052 12.7776 7.2044 12.8313 7.00001 12.8313C6.79562 12.8313 6.59482 12.7776 6.41771 12.6756C6.2406 12.5735 6.0934 12.4268 5.99084 12.25" stroke="#DA3E3E" stroke-width="1.16667" stroke-linecap="round" stroke-linejoin="round"/>
<path d="M10.8676 7.58341C10.6081 6.6334 10.4844 5.65144 10.5001 4.66675" stroke="#DA3E3E" stroke-width="1.16667" stroke-linecap="round" stroke-linejoin="round"/>
<path d="M3.65167 3.65161C3.55032 3.98038 3.49919 4.32257 3.5 4.66661C3.5 8.74994 1.75 9.91661 1.75 9.91661H9.91667" stroke="#DA3E3E" stroke-width="1.16667" stroke-linecap="round" stroke-linejoin="round"/>
<path d="M10.5 4.66657C10.5009 4.03252 10.3296 3.41013 10.0044 2.86587C9.67909 2.32162 9.21209 1.87594 8.65323 1.57644C8.09438 1.27695 7.46466 1.13489 6.83135 1.16544C6.19804 1.19599 5.58493 1.39801 5.0575 1.7499" stroke="#DA3E3E" stroke-width="1.16667" stroke-linecap="round" stroke-linejoin="round"/>
<path d="M0.583374 0.583252L13.4167 13.4166" stroke="#DA3E3E" stroke-width="1.16667" stroke-linecap="round" stroke-linejoin="round"/>
</svg>
