<svg width="162" height="78" viewBox="0 0 162 78" fill="none" xmlns="http://www.w3.org/2000/svg">
<path d="M18.792 38.812L0 29.2001V22.126L18.792 12.487V21.343L3.942 27.013V24.313L18.792 29.9561V38.812Z" fill="white"/>
<path d="M30.5805 40V0.175049H45.3765C48.0585 0.175049 50.5155 0.670048 52.7475 1.66005C54.9795 2.65005 56.9055 4.03605 58.5255 5.81805C60.1455 7.60005 61.3965 9.69705 62.2785 12.109C63.1604 14.521 63.6015 17.149 63.6015 19.993C63.6015 22.837 63.1604 25.474 62.2785 27.904C61.3965 30.334 60.1455 32.458 58.5255 34.2761C56.9055 36.076 54.9795 37.48 52.7475 38.488C50.5155 39.496 48.0585 40 45.3765 40H30.5805ZM41.4884 36.814L36.5745 31.9001H43.9185C45.4665 31.9001 46.8885 31.423 48.1844 30.469C49.4984 29.497 50.5515 28.1201 51.3435 26.338C52.1355 24.556 52.5314 22.441 52.5314 19.993C52.5314 17.527 52.1355 15.421 51.3435 13.675C50.5515 11.929 49.4984 10.597 48.1844 9.67905C46.8885 8.74305 45.4665 8.27505 43.9185 8.27505H36.5745L41.4884 3.36105V36.814Z" fill="white"/>
<path d="M74.4917 8.27505L79.4057 3.36105V18.886L76.9757 15.97H91.2857V24.07H76.9757L79.4057 21.181V36.814L74.4917 31.9001H94.2827V40H68.4437V0.175049H94.2827V8.27505H74.4917Z" fill="white"/>
<path d="M107.533 40L98.3526 0.175049H110.422L115.93 33.7631H115.525L121.006 0.175049H133.075L123.949 40H107.533Z" fill="white"/>
<path d="M142.963 12.487L161.755 22.126V29.2001L142.963 38.812V29.9561L157.813 24.313V27.013L142.963 21.343V12.487Z" fill="white"/>
<path d="M37.2 78H34.68C34.2267 78 34 77.7734 34 77.32V58.28C34 57.8267 34.2267 57.6 34.68 57.6H37.2C37.6533 57.6 37.88 57.8267 37.88 58.28V59.72H38.04C38.8133 58.3067 40.2267 57.6 42.28 57.6H43.6C45.92 57.6 47.5733 58.48 48.56 60.24C48.9867 59.3867 49.64 58.7334 50.52 58.28C51.4 57.8267 52.3467 57.6 53.36 57.6H54.64C56.5867 57.6 58.0667 58.1467 59.08 59.24C60.12 60.3067 60.64 61.8267 60.64 63.8V77.32C60.64 77.7734 60.4133 78 59.96 78H57.4C56.9467 78 56.72 77.7734 56.72 77.32V63.96C56.72 61.9867 55.76 61 53.84 61H52.68C50.4667 61 49.36 62.16 49.36 64.48V77.32C49.36 77.7734 49.12 78 48.64 78H46.12C45.6667 78 45.44 77.7734 45.44 77.32V63.96C45.44 61.9867 44.48 61 42.56 61H41.16C38.9733 61 37.88 62.1334 37.88 64.4V77.32C37.88 77.7734 37.6533 78 37.2 78Z" fill="#FF5100"/>
<path d="M83.9244 78H75.2844C73.311 78 71.7777 77.4534 70.6844 76.36C69.6177 75.2667 69.0844 73.7467 69.0844 71.8V63.8C69.0844 61.8267 69.6177 60.3067 70.6844 59.24C71.7777 58.1467 73.311 57.6 75.2844 57.6H78.5644C80.5377 57.6 82.071 58.1467 83.1644 59.24C84.2577 60.3067 84.8044 61.8267 84.8044 63.8V68.88C84.8044 69.36 84.5644 69.6 84.0844 69.6H73.3644C73.071 69.6 72.9244 69.7334 72.9244 70V71.72C72.9244 73.6667 73.8977 74.64 75.8444 74.64H83.9244C84.4044 74.64 84.6444 74.88 84.6444 75.36V77.36C84.6444 77.7867 84.4044 78 83.9244 78ZM73.3644 66.88H80.5244C80.791 66.88 80.9244 66.7467 80.9244 66.48V63.92C80.9244 62.9067 80.6977 62.1734 80.2444 61.72C79.791 61.24 79.0577 61 78.0444 61H75.8444C74.831 61 74.0977 61.24 73.6444 61.72C73.191 62.1734 72.9644 62.9067 72.9644 63.92V66.48C72.9644 66.7467 73.0977 66.88 73.3644 66.88Z" fill="#FF5100"/>
<path d="M107.651 78H99.0109C97.0376 78 95.5043 77.4534 94.4109 76.36C93.3443 75.2667 92.8109 73.7467 92.8109 71.8V63.8C92.8109 61.8267 93.3443 60.3067 94.4109 59.24C95.5043 58.1467 97.0376 57.6 99.0109 57.6H102.291C104.264 57.6 105.798 58.1467 106.891 59.24C107.984 60.3067 108.531 61.8267 108.531 63.8V68.88C108.531 69.36 108.291 69.6 107.811 69.6H97.0909C96.7976 69.6 96.6509 69.7334 96.6509 70V71.72C96.6509 73.6667 97.6243 74.64 99.5709 74.64H107.651C108.131 74.64 108.371 74.88 108.371 75.36V77.36C108.371 77.7867 108.131 78 107.651 78ZM97.0909 66.88H104.251C104.518 66.88 104.651 66.7467 104.651 66.48V63.92C104.651 62.9067 104.424 62.1734 103.971 61.72C103.518 61.24 102.784 61 101.771 61H99.5709C98.5576 61 97.8243 61.24 97.3709 61.72C96.9176 62.1734 96.6909 62.9067 96.6909 63.92V66.48C96.6909 66.7467 96.8243 66.88 97.0909 66.88Z" fill="#FF5100"/>
<path d="M117.538 61H115.617C115.351 61 115.164 60.96 115.057 60.88C114.977 60.7734 114.938 60.6 114.938 60.36V58.28C114.938 57.8267 115.164 57.6 115.617 57.6H117.538C117.804 57.6 117.938 57.4667 117.938 57.2V53.6C117.938 53.1467 118.177 52.92 118.658 52.92H121.178C121.631 52.92 121.857 53.1467 121.857 53.6V57.2C121.857 57.4667 122.004 57.6 122.298 57.6H126.018C126.498 57.6 126.738 57.8267 126.738 58.28V60.36C126.738 60.7867 126.498 61 126.018 61H122.298C122.004 61 121.857 61.1334 121.857 61.4V71.68C121.857 73.6267 122.857 74.6 124.857 74.6H126.417C126.897 74.6 127.137 74.8267 127.137 75.28V77.36C127.137 77.7867 126.897 78 126.417 78H124.258C122.284 78 120.737 77.4667 119.617 76.4C118.497 75.3334 117.938 73.8267 117.938 71.88V61.4C117.938 61.1334 117.804 61 117.538 61Z" fill="#FF5100"/>
</svg>
