<svg width="14" height="14" viewBox="0 0 14 14" fill="none" xmlns="http://www.w3.org/2000/svg">
<path d="M10.5 4.66675C10.5 3.73849 10.1313 2.84825 9.47487 2.19187C8.8185 1.5355 7.92826 1.16675 7 1.16675C6.07174 1.16675 5.1815 1.5355 4.52513 2.19187C3.86875 2.84825 3.5 3.73849 3.5 4.66675C3.5 8.75008 1.75 9.91675 1.75 9.91675H12.25C12.25 9.91675 10.5 8.75008 10.5 4.66675Z" stroke="white" stroke-opacity="0.5" stroke-width="1.16667" stroke-linecap="round" stroke-linejoin="round"/>
<path d="M8.00918 12.25C7.90662 12.4268 7.75942 12.5735 7.58231 12.6756C7.4052 12.7776 7.2044 12.8313 7.00001 12.8313C6.79562 12.8313 6.59482 12.7776 6.41771 12.6756C6.2406 12.5735 6.0934 12.4268 5.99084 12.25" stroke="white" stroke-opacity="0.5" stroke-width="1.16667" stroke-linecap="round" stroke-linejoin="round"/>
</svg>
