<svg width="272" height="552" viewBox="0 0 272 552" fill="none" xmlns="http://www.w3.org/2000/svg">
<g opacity="0.1">
<rect y="48" width="120.161" height="15" rx="7.5" fill="#55585B"/>
<path d="M0 150.5C0 146.358 3.35786 143 7.5 143H95.1827C99.3249 143 102.683 146.358 102.683 150.5C102.683 154.642 99.3249 158 95.1827 158H7.50001C3.35787 158 0 154.642 0 150.5Z" fill="#55585B"/>
<path d="M0 228.5C0 224.358 3.35786 221 7.5 221H52.5803C56.7225 221 60.0803 224.358 60.0803 228.5C60.0803 232.642 56.7225 236 52.5803 236H7.5C3.35786 236 0 232.642 0 228.5Z" fill="#55585B"/>
<path d="M0 184C0 178.477 4.47715 174 10 174H99.237C104.76 174 109.237 178.477 109.237 184V195C109.237 200.523 104.76 205 99.2369 205H9.99999C4.47714 205 0 200.523 0 195V184Z" fill="#55585B"/>
<rect x="28.4019" y="80" width="88.4819" height="15" rx="7.5" fill="#55585B"/>
<rect y="111" width="210.827" height="15" rx="7.5" fill="#55585B"/>
<rect width="272" height="15" rx="7.5" fill="#55585B"/>
<rect y="27" width="38.2329" height="15" rx="7.5" fill="#55585B"/>
<rect x="45.8795" y="27" width="16.3855" height="15" rx="7.5" fill="#55585B"/>
<rect y="252" width="38.2329" height="15" rx="7.5" fill="#55585B"/>
<rect x="45.8795" y="252" width="16.3855" height="15" rx="7.5" fill="#55585B"/>
</g>
<g opacity="0.1">
<rect width="120.161" height="15" rx="7.5" transform="matrix(1 0 0 -1 0 504)" fill="#55585B"/>
<path d="M0 401.5C0 405.642 3.35786 409 7.5 409H95.1827C99.3249 409 102.683 405.642 102.683 401.5C102.683 397.358 99.3249 394 95.1827 394H7.50001C3.35787 394 0 397.358 0 401.5Z" fill="#55585B"/>
<rect width="88.4819" height="15" rx="7.5" transform="matrix(1 0 0 -1 28.4017 472)" fill="#55585B"/>
<rect width="210.827" height="15" rx="7.5" transform="matrix(1 0 0 -1 0 441)" fill="#55585B"/>
<path d="M0 291.5C0 295.642 3.35786 299 7.5 299H95.1827C99.3249 299 102.683 295.642 102.683 291.5C102.683 287.358 99.3249 284 95.1827 284H7.50001C3.35787 284 0 287.358 0 291.5Z" fill="#55585B"/>
<rect width="88.4819" height="15" rx="7.5" transform="matrix(1 0 0 -1 28.4016 362)" fill="#55585B"/>
<rect width="88.4819" height="15" rx="7.5" transform="matrix(1 0 0 -1 0 386)" fill="#55585B"/>
<rect width="210.827" height="15" rx="7.5" transform="matrix(1 0 0 -1 0 331)" fill="#55585B"/>
<rect width="272" height="15" rx="7.5" transform="matrix(1 0 0 -1 0 552)" fill="#55585B"/>
<rect width="38.2329" height="15" rx="7.5" transform="matrix(1 0 0 -1 0 525)" fill="#55585B"/>
<rect width="16.3855" height="15" rx="7.5" transform="matrix(1 0 0 -1 45.88 525)" fill="#55585B"/>
</g>
</svg>
