<svg width="278" height="374" viewBox="0 0 278 374" fill="none" xmlns="http://www.w3.org/2000/svg">
<path fill-rule="evenodd" clip-rule="evenodd" d="M209.173 203.85C207.046 195.604 205.09 192.108 201.311 189.242C197.777 186.561 192.617 184.309 185.089 182.664C177.248 181.294 177.026 177.221 175.06 170.674C174.486 168.706 171.644 168.183 170.417 169.601C170.244 169.415 170.064 169.244 169.877 169.089C170.044 168.151 168.677 165.461 168.723 164.563C169.2 155.191 166.133 150.485 158.478 148.736C156.813 148.355 145.506 148.131 143.883 148.58C136.787 150.541 129.802 156.766 130.871 164.266C128.643 167.175 126.463 168.951 123.027 169.889C115.38 170.859 107.733 171.722 100.083 172.461C85.1095 174.808 71.0704 182.73 61.475 194.283C60.59 195.349 60.3343 196.797 61.1154 197.934C60.5035 200.553 57.0592 206.907 59.7693 208.703C55.3128 219.356 45.059 239.947 45.0398 245.829C44.959 270.542 47.6299 302.709 72.0288 316.385C73.0057 317.345 73.1455 318.407 73.5685 319.835C74.6411 324.334 78.5369 327.549 82.8008 327.287C103.806 327.754 124.151 325.192 145.156 325.068C154.42 325.014 165.56 326.395 173.607 327.316C181.654 328.237 189.777 327.423 197.5 325.068C198.151 326.093 199.467 326.69 200.803 326.395C208.809 324.806 215.283 319.875 220.921 314.486C222.644 311.353 229.373 302.427 226.699 299.319C229.123 289.075 228.997 278.067 224.689 268.311C225.299 266.523 224.186 264.558 224.689 262.711C225.052 261.375 225.983 260.822 226.452 259.499C227.112 257.637 226.394 255.139 225.652 253.239C225.347 252.292 226.212 251.272 226.452 250.306C227.592 245.748 224.982 246.15 223.101 243.103C223.129 243.093 223.619 240.918 223.616 240.929C223.904 239.376 223.183 237.386 222.553 236.09C222.128 235.213 221.217 234.665 220.311 234.766C221.223 231.672 222.376 229.098 223.616 226.117C225.809 220.863 228.585 215.832 231.734 211.076C233.024 209.129 231.292 206.873 229.205 206.74C222.45 206.311 215.77 205.339 209.173 203.85Z" fill="white"/>
<path fill-rule="evenodd" clip-rule="evenodd" d="M189.46 243.582C186.759 242.523 183.849 241.938 180.926 241.711C182.5 241.435 184.079 241.169 185.67 241.033C186.78 240.937 187.81 240.947 188.645 241.789C189.201 242.35 189.463 243.072 189.829 243.736C189.709 243.682 189.585 243.631 189.46 243.582ZM218.458 233.682C214.033 233.907 209.604 234.958 205.601 236.863C203.964 237.644 202.48 238.771 202.046 240.625C201.826 241.572 201.88 242.55 201.997 243.507C202.085 244.231 202.107 245.156 202.736 245.646C202.844 245.729 202.958 245.792 203.078 245.839C201.601 246.505 200.195 247.305 198.946 248.13C197.804 248.883 196.63 250.045 196.103 251.355C196.059 251.206 196.015 251.067 195.971 250.935C195.073 248.281 193.689 246.107 191.51 244.646C191.896 244.473 192.162 244.063 192.037 243.497C191.52 241.133 189.335 239.078 186.868 239.225C184.167 239.383 181.265 240.367 178.822 241.608C177.931 241.589 177.043 241.601 176.164 241.64C176.013 241.645 176.021 241.85 176.164 241.867C176.877 241.957 177.59 242.057 178.302 242.174C179.996 242.445 181.685 242.789 183.337 243.216C185.319 243.729 187.369 244.243 189.221 245.139C192.813 246.878 195.037 251.426 194.58 255.383C194.505 256.032 194.253 257.993 193.352 257.791C192.591 257.62 192.289 256.032 192.023 255.444C191.31 253.882 190.026 252.862 188.486 252.172C186.678 251.36 184.743 250.811 182.868 250.172C181.807 249.808 180.745 249.445 179.681 249.083C178.593 248.71 177.558 248.195 176.399 248.456C175.698 248.615 175.618 249.449 176.011 249.928C176.609 250.657 177.497 250.872 178.358 251.172C179.496 251.567 180.631 251.963 181.765 252.357C183.52 252.967 185.358 253.482 187.068 254.229L187.015 254.351C186.875 254.312 186.712 254.451 186.739 254.621C186.995 256.2 187.352 258.025 186.956 259.606C186.644 260.86 185.543 262.248 184.113 261.879C184.338 261.675 184.421 261.321 184.269 260.994C183.703 259.784 176.284 255.007 175.623 256.781C175.601 256.844 175.669 256.89 175.723 256.881C176.287 256.764 177.231 257.725 177.682 258.03C178.334 258.469 178.995 258.898 179.64 259.35C180.345 259.843 181.033 260.36 181.704 260.894C182.231 261.314 182.629 261.75 183.234 261.963C182.917 262.114 182.666 262.394 182.558 262.753C182.285 263.687 181.758 264.48 180.843 264.893C179.884 265.322 178.803 265.051 177.792 265.156C176.416 265.295 175.215 265.949 174.212 266.883C172.106 268.85 171.049 272.314 168.104 273.243C166.344 273.797 164.392 273.448 162.61 273.197C160.621 272.917 158.683 272.695 156.68 272.987C154.762 273.268 152.948 273.931 151.196 274.741C149.554 275.5 147.738 276.359 146.281 277.491C145.981 276.566 145.678 275.651 145.449 274.707C144.907 272.475 144.614 270.201 144.543 267.908C144.478 265.725 144.6 263.531 144.787 261.357C144.88 260.272 145.027 259.191 145.119 258.105C145.144 257.832 145.193 257.539 145.229 257.247C147.831 255.712 150.564 254.536 153.319 253.326C153.327 253.324 153.334 253.319 153.341 253.317C153.427 253.277 153.51 253.241 153.595 253.204C153.593 253.199 153.59 253.195 153.585 253.189C153.9 252.997 154.12 252.741 154.252 252.453C158.222 249.82 161.541 246.227 164.016 242.035C165.053 240.279 166.051 238.456 167.408 236.917C168.853 235.275 170.569 234.299 172.692 233.792C175.174 233.197 177.731 232.84 180.274 232.638C181.663 232.528 183.215 232.357 184.728 232.365C185.782 232.372 186.814 232.462 187.762 232.723C189.165 233.109 189.985 234.175 190.866 235.253C191.708 236.288 192.545 237.325 193.331 238.403C194.075 239.425 194.778 240.481 195.388 241.589C195.754 242.252 196.093 242.936 196.379 243.641C196.479 243.89 196.611 244.172 196.672 244.431C196.733 244.692 196.62 244.968 196.913 244.968C195.705 244.985 195.717 246.915 196.918 246.844C201.618 246.571 194.885 237.398 193.902 236.119C192.508 234.309 191.071 231.947 188.84 231.106C188.809 231.093 188.774 231.081 188.743 231.071C189.392 230.457 189.904 229.72 190.395 228.971C190.9 228.2 191.503 227.317 191.669 226.402C191.774 225.819 191.049 225.487 190.705 225.997C190.204 226.741 189.963 227.683 189.589 228.5C189.209 229.33 188.745 230.113 188.379 230.949C187.498 230.679 186.546 230.554 185.577 230.513C186.8 228.859 188.889 225.668 189.14 225.258C190.297 223.36 191.398 221.403 192.45 219.444C193.587 217.322 194.561 215.111 195.649 212.964C196.267 211.747 196.889 210.52 197.575 209.339C197.811 208.934 198.065 208.529 198.353 208.161C198.409 208.088 198.48 208.027 198.546 207.958C198.622 207.917 198.7 207.87 198.744 207.846C199.139 207.619 199.278 207.092 199.556 206.758C200 206.219 200.523 206.155 201.191 206.148C202.616 206.133 204.047 206.189 205.47 206.228C207.561 206.287 209.65 206.37 211.739 206.48C212.371 206.514 213.001 206.548 213.633 206.587C216.671 206.768 219.707 207.004 222.736 207.295C225.415 207.551 228.095 207.968 230.777 208.168C227.146 216.792 223.119 225.26 218.56 233.433C218.514 233.516 218.479 233.599 218.458 233.682ZM198.309 255.9C197.723 256.168 197.155 256.502 196.625 256.883C196.713 256.29 196.735 255.666 196.711 255.039C197.148 255.507 197.706 255.775 198.309 255.9ZM223.312 241.065C223.27 241.069 223.231 241.091 223.212 241.133C222.401 242.804 222.74 244.67 224.063 245.98C224.756 246.663 226.267 247.434 226.218 248.556C226.177 249.464 225.188 250.225 224.766 250.974C224.373 251.672 224.227 252.438 224.542 253.195C224.944 254.163 226.069 254.548 226.455 255.5C226.943 256.707 226.15 258.164 225.594 259.215C225.076 260.189 224.407 261.162 223.963 262.192C220.988 263.731 218.326 266.093 216.037 268.491C213.53 271.114 211.38 274.2 207.4 274.122C207.002 274.114 206.699 274.324 206.519 274.615C205.411 274.666 204.301 274.688 203.193 274.693C201.245 274.702 199.298 274.683 197.353 274.622C197.216 274.151 197.316 273.512 197.308 273.114C197.284 271.833 197.272 270.555 197.218 269.274C197.204 268.918 197.189 268.559 197.174 268.203C197.875 269.469 199.241 270.045 200.798 269.957C203.302 269.811 205.821 269.401 208.3 269.033C209.606 268.84 210.909 268.62 212.21 268.386C213.279 268.196 214.787 268.245 215.534 267.388C215.71 267.188 215.719 266.822 215.444 266.688C214.704 266.325 214.238 266.527 213.425 266.683C212.435 266.876 211.441 267.059 210.445 267.23C208.534 267.561 206.619 267.869 204.698 268.14C203.605 268.293 202.509 268.445 201.413 268.564C200.457 268.667 199.378 268.806 198.607 268.086C197.052 266.632 197.924 264.195 198.907 262.726C198.927 262.697 198.927 262.67 198.919 262.646C199.847 262.428 200.772 262.175 201.694 261.997C203.468 261.655 205.255 261.367 207.044 261.111C210.719 260.586 214.419 260.24 218.113 259.891C219.028 259.803 219.038 258.364 218.113 258.45C212.805 258.935 207.471 259.396 202.233 260.418C200.92 260.672 199.617 260.96 198.321 261.284C197.709 261.436 197.052 261.672 196.411 261.68C196.371 261.68 196.332 261.68 196.293 261.677C195.037 261.638 194.854 260.562 195.544 259.667C195.63 259.557 195.717 259.447 195.808 259.342C197.028 257.888 198.548 256.917 200.115 255.912C201.87 255.673 203.62 255.141 205.338 254.751C209.579 253.785 213.821 252.819 218.065 251.855C218.897 251.665 218.543 250.386 217.711 250.574C214.489 251.304 211.268 252.033 208.046 252.762L203.332 253.831C202.39 254.043 201.213 254.47 200.105 254.624C199.559 254.7 199.029 254.709 198.551 254.597C197.006 254.231 196.928 252.301 197.594 251.155C198.341 249.867 199.752 249.062 201.003 248.332C203.173 247.066 205.482 246.156 207.737 245.107C208.137 245.019 208.537 244.931 208.937 244.843C211.266 244.331 213.926 244.08 216.117 243.141C216.774 242.862 216.415 241.828 215.766 241.843C214.065 241.879 212.286 242.484 210.624 242.843C208.825 243.233 207.024 243.621 205.225 244.009C205.045 244.048 203.976 244.39 203.815 244.314C203.712 244.265 203.676 243.909 203.642 243.675C203.532 242.904 203.451 242.094 203.571 241.32C203.834 239.586 205.282 238.771 206.746 238.105C210.006 236.624 213.582 235.697 217.14 235.326C217.96 235.241 218.78 235.187 219.605 235.16C220.573 235.131 221.372 234.96 221.862 235.914C222.633 237.417 223.058 239.349 223.312 241.065ZM218.784 295.553C218.073 293.097 218.267 290.474 217.78 287.969C217.529 286.676 217.186 285.394 216.812 284.132C216.509 283.113 216.005 282.029 215.948 280.965C215.945 280.894 216.029 280.853 216.086 280.886C217.089 281.459 217.858 282.7 218.43 283.673C219.114 284.838 219.637 286.058 220.058 287.341C220.898 289.896 221.588 292.978 220.504 295.553C220.182 296.319 219.05 296.473 218.784 295.553ZM196.828 263.019C197.428 262.961 198.029 262.846 198.629 262.711C197.958 263.365 197.338 264.153 196.994 265.027C196.94 264.356 196.872 263.687 196.781 263.021C196.796 263.021 196.813 263.021 196.828 263.019ZM191.058 314.147C189.999 313.409 189.228 312.376 188.33 311.465C187.447 310.569 188.828 309.189 189.711 310.085C190.477 310.862 191.142 311.833 192.043 312.462C192.477 312.764 192.678 313.311 192.394 313.797C192.142 314.226 191.491 314.449 191.058 314.147ZM185.154 285.762C187.087 284.927 188.987 284.017 191.01 283.416C192.219 283.056 192.731 284.94 191.529 285.297C189.666 285.852 187.919 286.678 186.14 287.447C184.997 287.941 184.004 286.259 185.154 285.762ZM164.745 285.178C164.272 284.012 166.162 283.51 166.627 284.659C167.163 285.982 167.778 287.271 168.314 288.594C168.786 289.759 166.897 290.262 166.431 289.112C165.895 287.79 165.281 286.501 164.745 285.178ZM144.6 308.457C144.285 308.876 143.76 309.104 143.264 308.807C142.849 308.558 142.595 307.897 142.914 307.472C143.844 306.232 144.787 305.007 145.878 303.902C146.762 303.006 148.142 304.387 147.258 305.282C146.284 306.269 145.431 307.349 144.6 308.457ZM141.719 177.84C142.616 178.451 143.401 179.195 144.166 179.96C145.056 180.849 143.675 182.229 142.785 181.339C142.14 180.695 141.49 180.041 140.734 179.525C140.297 179.227 140.101 178.672 140.384 178.19C140.637 177.757 141.284 177.542 141.719 177.84ZM171.027 209.247C170.52 210.261 170.064 211.255 170.036 212.408C170.005 213.664 168.052 213.664 168.083 212.408C168.121 210.9 168.677 209.591 169.341 208.262C169.903 207.136 171.586 208.126 171.027 209.247ZM181.78 184.023C182.83 183.323 183.806 185.015 182.766 185.708C181.923 186.27 181.079 186.832 180.235 187.394C179.186 188.093 178.21 186.402 179.25 185.709C180.093 185.147 180.937 184.585 181.78 184.023ZM135.139 228.125C134.96 229.365 133.079 228.835 133.257 227.606C133.531 225.708 133.866 223.834 134.381 221.985C134.719 220.775 136.601 221.292 136.264 222.504C135.749 224.353 135.414 226.227 135.139 228.125ZM128.294 250.482C127.038 250.456 127.037 248.504 128.294 248.53C129.431 248.555 130.549 248.854 131.646 249.127C132.867 249.432 132.346 251.314 131.127 251.009C130.2 250.778 129.256 250.503 128.294 250.482ZM125.767 295.518C125.336 295.728 124.893 295.917 124.456 296.117C123.582 296.516 122.709 296.916 121.836 297.317C120.017 298.152 118.198 298.989 116.382 299.83C112.746 301.513 109.081 303.136 105.436 304.8C101.719 306.498 98.0119 308.218 94.3093 309.946C92.5648 310.761 90.8072 311.545 89.053 312.338C87.5531 313.016 85.6991 314.201 84.0525 314.312C83.9678 314.318 83.9395 314.211 83.9878 314.156C84.6099 313.449 85.6022 313.037 86.4198 312.578C87.2549 312.108 88.1056 311.666 88.9525 311.218C90.7179 310.283 92.4855 309.355 94.268 308.453C97.8335 306.649 101.406 304.859 104.979 303.07C108.623 301.246 112.263 299.41 115.939 297.65C117.669 296.822 119.402 295.996 121.135 295.173C122.074 294.727 123.014 294.281 123.954 293.837C124.359 293.645 124.761 293.438 125.176 293.266C125.727 293.038 126.146 293.084 126.715 292.944C127.642 292.715 128.044 293.894 127.332 294.407C126.746 294.83 126.437 295.192 125.767 295.518ZM112.734 315.531C112.533 315.044 112.953 314.452 113.415 314.331C113.97 314.185 114.414 314.521 114.616 315.012C115.152 316.314 115.914 317.508 116.895 318.516C117.772 319.418 116.393 320.798 115.515 319.897C114.285 318.632 113.401 317.155 112.734 315.531ZM103.145 284.203C102.255 283.314 103.635 281.934 104.525 282.823L107.056 285.352C107.946 286.242 106.565 287.622 105.675 286.733L103.145 284.203ZM77.1856 280.079C75.3664 280.613 73.2447 281.103 72.0045 282.654C71.9439 282.73 71.8422 282.633 71.8785 282.557C73.4663 279.267 78.0197 278.112 81.1723 276.96C83.4021 276.144 85.6901 275.468 87.9973 274.864C87.7667 272.233 88.4026 269.413 88.6237 266.794C88.8597 263.999 89.0518 261.196 89.1504 258.392C89.2512 255.532 89.2756 252.652 89.1814 249.791C89.0877 246.94 88.7175 244.124 88.5554 241.283C88.5398 241.008 88.9225 240.995 89.0049 241.222C89.9631 243.859 90.3723 246.779 90.6842 249.559C91.0054 252.423 91.112 255.279 91.071 258.159C91.0286 261.121 90.8563 264.076 90.6198 267.028C90.5078 268.427 90.3777 269.825 90.2549 271.223C90.1612 272.29 90.1178 273.349 89.9001 274.382C91.2917 274.041 92.6864 273.718 94.0767 273.404C98.51 272.404 102.962 271.476 107.377 270.394C109.544 269.864 111.68 269.228 113.837 268.663C115.869 268.132 118.013 267.487 120.099 267.25C120.843 267.165 120.938 268.183 120.445 268.528C118.75 269.718 116.498 270.547 114.54 271.213C112.575 271.881 110.533 272.362 108.519 272.857C104.318 273.889 100.078 274.734 95.8446 275.613C91.6167 276.492 87.3808 277.364 83.2006 278.448C81.1874 278.97 79.1811 279.494 77.1856 280.079ZM67.217 227.865C66.13 228.503 65.1487 226.815 66.2318 226.18C67.649 225.348 69.1594 224.723 70.682 224.114C71.8505 223.647 72.3532 225.535 71.2011 225.996C69.8327 226.544 68.4904 227.118 67.217 227.865ZM63.281 300.375C62.1911 301.007 61.2091 299.32 62.2958 298.69C63.8221 297.806 65.4936 297.216 67.0752 296.442C68.2005 295.891 69.1889 297.575 68.0604 298.127C66.479 298.901 64.8073 299.491 63.281 300.375ZM61.5107 259.215C62.5645 260.216 63.971 260.687 65.2971 261.213C66.4534 261.671 65.9463 263.557 64.778 263.095C63.1258 262.44 61.4429 261.842 60.1302 260.595C59.2169 259.728 60.5999 258.35 61.5107 259.215ZM73.169 203.316C74.3275 203.771 73.8202 205.658 72.65 205.199C71.3521 204.69 70.0118 204.302 68.714 203.793C67.5557 203.339 68.0629 201.452 69.2331 201.911C70.5309 202.42 71.8712 202.807 73.169 203.316ZM93.7355 181.114C94.9665 180.906 95.4907 182.787 94.2546 182.996C92.721 183.255 91.2109 183.557 89.7563 184.12C88.5818 184.574 88.0778 182.686 89.2373 182.238C90.692 181.675 92.2022 181.372 93.7355 181.114ZM100.531 235.172C99.4023 234.618 100.393 232.935 101.516 233.487C102.7 234.069 103.927 234.519 105.219 234.794C106.449 235.056 105.925 236.937 104.7 236.676C103.246 236.366 101.862 235.827 100.531 235.172ZM106.949 204.722C108.165 204.389 108.678 206.272 107.468 206.604C105.339 207.187 103.147 207.49 101.002 208.009C99.7793 208.305 99.2622 206.422 100.483 206.127C102.628 205.608 104.82 205.305 106.949 204.722ZM134.176 195.166C135.412 195.395 134.886 197.275 133.658 197.048C132.35 196.806 131.025 196.803 129.7 196.802C128.442 196.801 128.444 194.85 129.7 194.85C131.206 194.851 132.692 194.892 134.176 195.166ZM222.975 205.363C219.785 205.058 216.591 204.814 213.391 204.631C213.242 204.623 213.096 204.614 212.947 204.606C212.93 204.572 212.908 204.54 212.886 204.506C211.842 202.974 211.073 201.442 210.407 199.71C209.77 198.06 209.152 196.36 208.171 194.872C207.052 193.176 205.541 191.85 203.886 190.7C202.882 191.375 201.95 192.165 201.097 193.003C200.2 193.885 198.819 192.505 199.716 191.623C200.474 190.879 201.283 190.191 202.138 189.569C201.151 188.97 200.143 188.406 199.161 187.846C195.478 185.745 191.708 183.803 187.859 182.027C186.07 181.2 184.259 180.466 182.436 179.721C181.455 179.322 180.487 178.807 179.505 178.343C179.576 177.65 179.369 176.874 178.837 176.418C178.444 176.084 178.139 175.96 177.67 175.723C177.565 175.686 177.502 175.664 177.473 175.652C177.495 175.657 177.558 175.677 177.663 175.711C177.912 175.826 177.931 175.791 177.721 175.611C177.709 175.216 176.931 174.381 176.753 173.974C176.133 172.576 175.94 171.097 175.025 169.824C173.763 168.07 171.645 167.406 169.67 168.001C169.465 165.891 169.412 163.688 168.616 161.805C168.594 161.754 168.523 161.731 168.492 161.788C167.662 163.2 167.591 164.774 167.528 166.403C167.467 167.933 167.525 169.497 167.725 171.017C167.598 171.114 167.469 171.207 167.335 171.297C166.705 171.712 166.027 172.032 165.314 172.269C163.957 172.717 162.535 172.912 161.112 172.981C157.439 173.156 153.654 172.786 150.042 172.156C146.388 171.519 140.788 170.563 137.537 168.736C135.391 167.531 133.413 166.059 131.406 164.635C132.134 162.293 132.319 159.775 131.587 157.796C131.499 157.56 131.128 157.516 131.057 157.796C130.599 159.685 130.464 161.583 129.854 163.449C129.845 163.476 129.835 163.505 129.825 163.532C129.635 163.403 129.444 163.276 129.254 163.149C128.815 162.859 128.217 163.076 127.953 163.49C123.738 170.129 117.064 170.509 110.055 171.695C102.384 172.993 94.6751 174.393 87.3 176.933C80.2471 179.363 73.5066 182.901 68.1668 188.185C66.9581 189.381 65.8277 190.656 64.7607 191.987C65.793 192.117 66.8168 192.319 67.8274 192.637C69.0239 193.012 68.5097 194.896 67.3083 194.519C66.0095 194.111 64.6963 193.909 63.3696 193.809C59.7414 198.77 56.9124 204.396 54.4661 209.934C49.7738 220.552 46.7196 231.859 45.3141 243.371C46.0858 242.909 46.8714 242.469 47.6765 242.059C48.7952 241.49 49.7819 243.175 48.662 243.744C47.4183 244.377 46.2103 245.074 45.0398 245.829C44.5285 250.869 44.3304 255.94 44.4505 261.004C44.736 273.075 46.3662 285.5 50.0537 297.018C51.8621 302.671 54.2587 308.277 57.8291 313.054C59.4446 315.218 61.2799 317.17 63.4421 318.797C64.4891 319.587 65.597 320.293 66.766 320.888C68.2718 321.659 70.2339 321.912 71.5322 323.003C71.9593 323.362 72.2888 323.835 72.5377 324.369C72.3937 325.384 72.3766 326.401 72.6548 327.416C72.7427 327.734 72.9819 327.992 73.2772 328.116C73.282 328.204 73.282 328.29 73.282 328.372C73.282 328.411 73.3406 328.421 73.3479 328.382C73.3601 328.307 73.3723 328.231 73.3845 328.153C73.4797 328.185 73.5798 328.199 73.6823 328.199C77.3893 328.213 81.101 328.123 84.813 327.997C84.526 327.118 84.215 326.247 83.9166 325.368C83.5112 324.174 85.3975 323.666 85.7992 324.849C86.1484 325.877 86.5135 326.895 86.8383 327.926C90.8155 327.779 94.7915 327.601 98.7604 327.47C107.202 327.189 115.641 327.097 124.085 326.919C137.198 326.641 150.406 326.072 163.539 326.628C163.993 325.665 164.502 324.723 164.984 323.773C165.552 322.651 167.236 323.64 166.669 324.758C166.334 325.418 165.987 326.07 165.658 326.73C168.317 326.868 170.975 327.05 173.626 327.299C178.151 327.724 182.632 328.477 187.151 328.946C191.747 329.424 196.242 329.339 200.801 328.58C201.621 328.443 202.104 327.948 202.304 327.333C202.311 327.331 202.316 327.326 202.321 327.319C202.555 327.045 202.775 326.819 203.002 326.621C203.273 326.445 203.566 326.296 203.91 326.165C204.552 325.921 205.221 325.772 205.899 325.672C206.646 325.56 207.402 325.55 208.149 325.457C208.779 325.377 209.394 325.257 210.009 325.111C211.114 324.847 212.164 324.503 213.208 324.047C214.118 323.65 214.941 323.079 215.717 322.456C217.323 321.283 218.714 319.785 219.929 318.228C220.637 317.318 221.303 316.374 221.908 315.391C222.963 313.688 223.861 311.919 224.769 310.136C225.098 309.608 225.399 309.066 225.674 308.514C223.899 307.991 222.108 307.565 220.227 307.535C218.97 307.515 218.97 305.563 220.227 305.583C222.384 305.618 224.425 306.122 226.452 306.722C226.551 306.459 226.646 306.195 226.733 305.928C226.975 305.369 227.175 304.796 227.341 304.215C227.438 303.951 227.536 303.688 227.634 303.424C227.853 302.512 228.073 301.597 228.295 300.682C228.737 299.219 229.086 297.733 229.342 296.227C229.557 295.237 229.723 294.239 229.835 293.229C230.177 290.782 230.455 288.34 230.474 285.866C230.445 284.341 230.348 282.819 230.182 281.304C230.111 280.275 229.991 279.25 229.83 278.233C229.62 276.72 229.413 275.222 229.064 273.729C228.803 272.719 228.542 271.709 228.28 270.699C227.629 268.594 226.86 266.529 225.974 264.512C225.925 264.385 225.679 264.107 225.53 264.104C225.418 264.102 225.261 264.204 225.313 264.341C225.318 264.353 225.322 264.368 225.328 264.38C225.276 264.265 225.227 264.148 225.176 264.034C225.132 263.926 224.961 263.712 224.83 263.714C224.822 263.714 224.815 263.714 224.805 263.717C224.839 263.692 224.871 263.66 224.903 263.624C225.779 262.587 226.348 261.223 226.975 260.023C227.495 259.032 227.985 257.988 228.127 256.868C228.251 255.885 228.083 254.917 227.465 254.121C226.763 253.216 225.44 252.792 226.174 251.484C227.009 249.996 228.237 248.705 227.014 247.015C226.392 246.153 225.406 245.68 224.673 244.931C223.832 244.065 223.431 242.906 223.453 241.723C223.504 241.752 223.573 241.738 223.597 241.664C224.305 239.527 223.792 237.181 223.068 235.099C222.672 233.97 221.835 233.66 220.861 233.604C225.078 225.37 229.025 217.004 232.542 208.446C232.659 208.165 232.773 207.885 232.888 207.604C233.059 207.185 232.698 206.626 232.28 206.533C229.24 205.867 226.072 205.655 222.975 205.363Z" fill="#282828"/>
<path fill-rule="evenodd" clip-rule="evenodd" d="M195.824 79.0073C195.742 76.09 191.497 74.8787 190.271 77.768C190.195 77.8453 190.112 77.9197 190.034 77.9863C190.418 77.6572 189.615 78.2018 189.485 78.2691C189.373 78.3267 189.259 78.3786 189.145 78.4323C188.356 71.0416 185.679 63.0741 178.759 59.3644C169.109 54.6861 157.958 53.7729 147.37 54.2377C142.007 54.5558 135.813 55.4131 131.048 52.7007C129.564 51.8556 128.373 50.5253 126.696 50.0029C121.399 48.5706 118.997 54.0076 119.718 58.4788C117.459 58.4966 115.218 59.7469 114.243 61.8055C113.67 63.0239 113.68 64.3386 113.187 65.5614C111.672 68.6622 109.504 70.8911 110.73 74.6506C108.575 77.1022 109.803 80.8137 111.542 83.1609C112.401 84.3817 113.424 85.5537 114.053 86.9201C114.664 88.2285 113.742 89.7801 113.229 91.0205C109.437 100.01 109.653 109.911 111.694 119.288C107.599 121.064 106.37 126.617 109.04 130.113C109.959 131.349 111.08 131.808 112.351 132.568C113.96 133.453 112.646 136.999 113.161 138.711C113.861 142.891 117.668 145.465 121.433 142.75C123.821 142.389 125.748 149.337 127.483 151.081C128.551 152.486 129.738 153.748 131.028 154.912C134.872 164.799 154.568 169.812 164.306 169.24C174.503 168.173 181.383 159.515 187.111 151.832C190.052 147.738 191.965 143.156 192.661 138.158C193.36 133.135 193.054 128.104 192.582 123.075C191.589 112.39 190.023 96.9967 189.012 86.1965C192.666 85.8957 195.935 82.7859 195.824 79.0073V79.0073Z" fill="white"/>
<path fill-rule="evenodd" clip-rule="evenodd" d="M116.17 72.5834C116.167 72.5986 116.172 72.61 116.175 72.6261C116.176 72.6215 116.177 72.619 116.178 72.6134C116.175 72.6012 116.173 72.5932 116.17 72.5834" fill="#4F66AF"/>
<path fill-rule="evenodd" clip-rule="evenodd" d="M116.169 72.7388C116.156 72.7246 116.137 72.7142 116.118 72.7C116.117 72.7005 116.117 72.701 116.117 72.7015C116.135 72.7132 116.152 72.7266 116.169 72.7388" fill="#4F66AF"/>
<path fill-rule="evenodd" clip-rule="evenodd" d="M195.243 80.3879C196.443 79.3911 198.333 80.3089 197.927 81.95C197.484 83.7373 195.568 84.9586 193.986 85.693C192.358 86.4485 190.772 86.5942 188.995 86.5117L188.973 86.5068V86.5068C189.467 88.4837 189.746 90.5386 190.124 92.5274C190.602 95.0505 191.074 97.5749 191.537 100.1C191.986 102.542 192.554 104.986 192.898 107.439C193.246 109.916 193.58 112.394 193.922 114.871C194.492 119.009 194.952 123.165 195.437 127.314L195.669 129.278C196.155 133.435 196.546 137.598 195.625 141.734C194.762 145.612 192.817 149.228 190.562 152.465C188.353 155.634 185.885 158.681 183.177 161.437C177.952 166.754 171.509 171.012 163.954 171.801C160.702 172.141 157.227 171.763 154.169 170.581L153.966 170.502C150.87 169.28 147.079 167.188 146.274 163.755C145.779 161.649 147.95 160.005 149.853 161.004C150.735 161.467 151.398 161.996 152.122 162.66L152.25 162.778C152.842 163.327 153.07 163.496 153.752 163.926C155.152 164.806 156.202 165.223 157.792 165.623C160.724 166.36 163.888 166.244 166.865 165.372C173.184 163.521 178.086 158.69 182.286 153.847C184.567 151.216 186.731 148.457 188.4 145.392C190.152 142.176 190.96 138.799 190.912 135.14C190.857 131.01 190.286 126.865 189.911 122.756C189.53 118.566 189.177 114.378 188.866 110.182C188.575 106.248 188.546 102.296 188.445 98.3489L188.425 97.609C188.365 95.5138 188.323 93.4179 188.276 91.3222C188.229 89.2327 188.063 87.1165 188.278 85.0357C188.294 84.8842 188.498 84.8459 188.548 84.9991C188.675 85.389 188.786 85.7849 188.891 86.1831C188.907 86.1709 188.925 86.1599 188.947 86.1524C190.339 85.6742 191.621 84.7195 192.665 83.69C193.662 82.7076 194.183 81.2684 195.243 80.3879ZM119.081 51.1126C119.956 47.5224 123.891 46.7205 126.801 48.4495C128.2 49.2809 129.321 50.48 130.628 51.4329C131.928 52.3805 133.365 53.1414 134.88 53.6789C137.892 54.7465 141.068 55.1346 144.251 55.1485C151.997 55.1825 159.584 53.0063 167.342 53.249C173.344 53.4369 179.715 55.2103 184.069 59.548C186.415 61.8847 187.926 64.8889 188.737 68.0783C189.116 69.5689 189.398 71.0956 189.621 72.6188L189.676 72.9995C189.8 73.8898 190.001 74.8322 190.019 75.732C190.036 76.54 189.831 77.3856 189.721 78.1853C189.487 79.8711 186.875 79.6791 186.5 78.1853C185.645 74.7842 186.003 71.274 184.958 67.8845C184.032 64.8789 182.237 62.2509 179.636 60.4536C168.664 52.8711 154.594 59.2208 142.505 58.6309C139.55 58.4867 136.552 58.0303 133.765 57.0132C132.328 56.4886 130.913 55.849 129.61 55.0444C128.416 54.3077 127.382 53.3821 126.277 52.5303L125.789 52.1599C125.032 51.5901 123.742 50.6992 122.977 51.4529C122.645 51.781 122.625 52.5229 122.631 53.0894L122.635 53.3454C122.669 55.7504 123.16 58.151 122.259 60.4746C121.848 61.5344 120.707 62.2026 119.622 61.6024L119.565 61.5702C117.269 60.2046 114.252 62.9486 116.016 65.2196L116.071 65.2883C117.064 66.494 116.535 68.6172 114.758 68.6119L114.694 68.6108C111.529 68.512 110.125 72.466 112.853 74.1936L112.937 74.2452C115.152 75.5702 113.209 78.7557 110.939 77.662C111.132 77.7547 110.797 77.7535 110.606 78.0101C110.422 78.2565 110.409 78.4697 110.452 78.781C110.585 79.7242 111.415 80.5191 112.087 81.1158C113.613 82.4715 115.506 83.4076 117.456 83.9775C125.268 86.2606 133.283 83.4679 140.894 81.7813C148.829 80.0231 157.791 79.3148 164.711 84.3042C164.794 84.3632 164.722 84.4952 164.631 84.4425C159.664 81.5593 153.582 81.8153 148.153 82.9973C141.034 84.5474 133.978 87.4328 126.687 88.193C128.734 91.8052 129.59 96.0714 129.043 100.203C128.667 103.047 127.535 105.514 126.197 108.014L125.942 108.49C124.75 110.734 123.826 112.854 123.812 115.454C123.797 118.037 119.956 118.581 119.305 116.064C117.827 110.347 123.212 105.843 125.409 101.129C127.287 97.0983 127.345 92.3992 125.825 88.2725C124.111 88.4104 122.382 88.4248 120.637 88.2691C119.138 88.1352 117.596 87.8651 116.092 87.4377L115.491 89.9651C114.694 93.3317 113.956 96.696 113.732 100.193C113.567 102.762 113.576 105.344 113.827 107.907C114.043 110.121 114.501 112.256 114.966 114.417C115.365 114.944 115.569 115.75 115.457 116.392C118.049 117.138 120.087 119.182 120.832 121.89C120.878 122.055 120.647 122.147 120.56 122.005C118.793 119.074 114.243 117.995 111.364 119.931C108.615 121.78 107.531 125.513 109.087 128.468C109.906 130.021 111.119 131.113 112.684 131.865L112.998 132.013C113.818 132.401 114.571 132.823 115.098 133.602C115.783 134.613 115.806 135.681 115.741 136.836L115.713 137.304C115.67 138.078 115.66 138.875 115.891 139.619L115.943 139.785C116.004 139.97 116.068 140.134 116.179 140.311C116.212 140.364 116.523 140.67 116.625 140.78L116.753 140.819V140.819L116.896 140.825V140.825C117.054 140.827 117.263 140.758 117.195 140.806L117.213 140.795C117.273 140.758 117.329 140.718 117.375 140.683L117.464 140.614C117.671 140.314 117.931 140.067 118.249 139.878L118.554 139.743V139.743C119.344 138.909 120.699 139.347 121.265 140.178C121.673 140.776 121.892 141.384 121.91 141.983C121.974 141.881 122.116 141.825 122.206 141.939L122.743 142.624C124.799 145.25 126.819 147.892 129.155 150.285C130.442 151.604 131.826 152.844 133.273 153.985C134.508 154.96 136.852 155.898 136.888 157.673C136.899 158.249 136.49 158.657 135.989 158.853C134.359 159.489 132.345 157.324 131.168 156.271L131.071 156.186C129.631 154.924 128.316 153.54 127.102 152.059C124.746 149.182 122.775 145.871 121.906 142.229C121.866 142.865 121.593 143.487 121.062 144.075C120.355 144.857 119.387 145.406 118.354 145.632C116.012 146.143 113.726 145.301 112.332 143.35C111.155 141.701 110.808 139.524 110.96 137.532L110.979 137.293C111 136.973 111.027 136.387 111.11 136.137L110.373 135.733V135.733C109.469 135.252 108.631 134.621 107.879 133.929C104.857 131.143 103.341 126.617 104.722 122.656C105.586 120.179 107.402 118.023 109.728 116.902C109.339 116.004 109.209 114.938 109.062 113.995L109.038 113.838C108.789 112.291 108.581 110.724 108.502 109.157C108.353 106.232 108.534 103.28 108.993 100.388C109.74 95.6923 111.286 90.712 114.12 86.7724C111.958 85.9141 109.968 84.6716 108.432 82.9463C106.827 81.1434 105.804 78.5622 107.045 76.2726C107.361 75.689 107.773 75.1984 108.247 74.8088C107.426 73.2581 107.16 71.4255 107.667 69.6738C108.272 67.5796 109.917 65.9462 111.904 65.1836C111.421 63.1994 111.816 61.0652 113.29 59.4116C114.752 57.7712 117.023 57.1737 119.125 57.5487C119.239 55.4384 118.574 53.1939 119.081 51.1126ZM113.187 125.205C115.114 124.262 117.397 124.412 119.322 125.306L119.453 125.367C121.554 126.386 124.337 128.766 123.669 131.298C123.278 132.778 121.633 133.284 120.357 132.645C119.291 132.111 119.048 131.156 118.514 130.197C118.136 129.519 117.668 128.988 117.119 128.443C115.962 127.294 114.663 126.441 113.187 125.758C112.974 125.66 112.981 125.306 113.187 125.205ZM161.741 74.0382C161.56 73.9558 161.691 73.673 161.873 73.7247C166.715 75.107 171.23 78.2098 173.927 82.5165C174.092 82.7793 174.117 83.2118 173.927 83.4719L173.84 83.5899C173.716 83.7514 173.594 83.8706 173.362 83.9067C172.924 83.9745 172.544 83.8605 172.292 83.4719C169.635 79.3669 166.23 76.091 161.741 74.0382ZM194.156 74.8511C194.566 74.1565 195.654 74.2963 195.871 75.075L195.902 75.1428C196.019 75.4083 195.966 75.4626 195.748 75.3124C196.287 75.7569 196.532 76.419 196.367 77.1309C195.475 80.9758 191.119 83.7214 187.321 83.3435C186.99 83.3106 186.945 82.9034 187.245 82.7819C188.706 82.1905 190.003 81.23 191.046 80.0514C192.059 78.9058 192.486 77.595 193.031 76.2114C193.235 75.692 193.554 75.318 194.002 75.1138C194.061 75.0318 194.113 74.9445 194.156 74.8511ZM172.559 72.3802L172.585 72.3819C174.536 72.6339 176.224 73.5966 177.595 75.0072C178.915 76.3656 180.58 78.6071 180.437 80.6006C180.343 81.9222 178.463 82.6777 177.762 81.3252C177.343 80.5181 177.248 79.6335 176.955 78.7801C176.686 77.998 176.315 77.2553 175.87 76.5588C174.955 75.1238 173.696 73.9081 172.407 72.8112C172.256 72.6829 172.361 72.3809 172.559 72.3802V72.3802ZM122.509 71.7946C122.076 71.3827 122.526 70.6806 123.076 70.8197C125.979 71.5543 128.853 72.4477 131.871 72.5365C133.378 72.5806 134.877 72.4618 136.37 72.2669L137.126 72.1665C138.29 72.0146 139.474 71.8953 140.625 72.1344C141.392 72.2937 141.542 73.2818 141.064 73.7973C138.806 76.2318 134.452 75.9991 131.457 75.5887C128.206 75.1428 124.925 74.0961 122.509 71.7946ZM174.921 64.2062C174.722 63.9307 175.057 63.496 175.373 63.6182C178.257 64.7327 181.28 67.6341 182.075 70.6698C182.285 71.4717 181.273 72.0773 180.679 71.482C179.572 70.3727 178.791 69.0623 177.855 67.8154C176.923 66.5724 175.832 65.4685 174.921 64.2062ZM127.661 65.5619C127.43 65.3309 127.662 64.8707 127.995 64.9883C129.873 65.6531 131.765 66.2284 133.738 66.5302C135.758 66.8391 137.798 66.6044 139.829 66.7295C140.651 66.78 141.211 68.0579 140.297 68.4556C136.238 70.2221 130.725 68.6203 127.661 65.5619ZM132.846 61.5995C132.523 61.3609 132.707 60.7061 133.146 60.8888C134.934 61.6332 136.743 61.8161 138.662 61.7395C139.371 61.711 139.52 62.8247 138.829 62.975C136.708 63.4363 134.58 62.8808 132.846 61.5995Z" fill="#282828"/>
<path fill-rule="evenodd" clip-rule="evenodd" d="M170.33 143.294C170.705 142.643 171.567 142.041 172.355 142.133C175.889 142.547 175.883 146.83 174.518 149.33C173.309 151.547 170.805 152.848 168.299 152.658C165.667 152.458 163.424 150.911 162.436 148.449C161.784 146.821 161.482 143.814 163.219 142.72C163.251 142.7 163.304 142.705 163.33 142.734C164.162 143.703 164.195 145.156 164.924 146.235C165.602 147.237 166.655 148.065 167.889 148.193C168.811 148.289 169.743 147.956 170.103 147.129C170.298 146.682 170.276 146.439 170.203 146.131L170.136 145.864C169.905 144.927 169.802 144.213 170.33 143.294ZM171.275 124.512C173.118 125.632 175.926 128.243 173.943 131.02C171.61 133.467 168.25 130.661 166.594 129.391C165.059 128.408 163.334 130.938 164.758 132.086C176.722 140.941 181.578 124.805 172.207 123.196C171.175 123.018 170.792 124.166 171.275 124.512ZM151.814 116.834C152.945 115.137 155.527 115.387 156.15 117.4C156.488 118.491 156.022 119.471 156.046 120.56C156.066 121.48 156.006 122.505 155.724 123.396C155.08 125.428 153.252 126.863 151.09 126.803C148.935 126.744 147.036 125.38 146.133 123.459C145.227 121.531 145.419 119.536 146.081 117.576C146.112 117.481 146.236 117.436 146.31 117.515C147.092 118.346 147.664 119.222 148.257 120.152L148.863 121.106C149.327 121.823 150.001 122.74 150.867 122.683L150.997 122.67C151.238 122.649 151.201 122.697 151.386 122.369C151.472 122.217 151.457 121.935 151.498 121.756L151.513 121.696V121.696L151.505 121.663C151.486 121.576 151.468 121.413 151.454 121.129L151.45 121.067C151.388 119.74 151.013 118.036 151.814 116.834ZM180.487 117.963C180.285 115.793 183.336 115.311 184.351 116.917C184.88 117.754 185.034 118.806 185.151 119.802L185.206 120.275C185.326 121.299 185.373 122.363 184.929 123.318C184.229 124.822 182.707 125.617 181.065 125.491C179.497 125.37 178.066 124.461 177.312 123.082C176.64 121.851 175.971 119.447 176.788 118.163C176.837 118.085 176.936 118.075 177.003 118.135C177.775 118.82 177.901 120.069 178.36 120.961C178.833 121.882 179.55 122.778 180.638 122.918C181.679 123.052 182.076 122.484 181.811 121.492C181.468 120.212 180.616 119.341 180.487 117.963ZM152.638 103.934L153.137 103.742C154.847 103.097 157.195 102.35 158.585 103.74C159.442 104.597 159.606 105.86 158.993 106.906C158.252 108.173 156.922 108.204 155.637 108.391C154.176 108.603 152.69 109.006 151.329 109.582C149.797 110.23 148.375 111.038 146.982 111.94C145.658 112.798 144.338 114.199 142.753 114.464C142.688 114.474 142.615 114.446 142.598 114.375C142.238 112.826 143.238 111.302 144.131 110.093C145.211 108.63 146.52 107.429 147.983 106.352C149.395 105.312 151.008 104.561 152.638 103.934ZM183.697 109.441L183.85 109.415C184.887 109.242 185.826 109.282 186.608 110.103C187.204 110.729 187.434 111.541 187.15 112.369C186.887 113.133 186.301 113.909 185.449 114.069C182.574 114.609 179.39 114.52 176.501 114.111C175.18 113.923 173.846 113.694 172.558 113.332L171.966 113.161C170.891 112.854 169.661 112.533 168.88 111.743C168.599 111.459 168.761 111.053 169.097 110.921C170.459 110.388 172.326 110.672 173.779 110.63C175.469 110.581 177.161 110.455 178.843 110.28C180.486 110.11 182.077 109.739 183.697 109.441Z" fill="#282828"/>
<path fill-rule="evenodd" clip-rule="evenodd" d="M171.543 134.017C168.829 132.795 163.956 133.862 162.186 134.286C158.073 135.272 153.935 137.403 152.656 140.742C151.215 144.504 154.09 145.689 154.513 145.495C157.361 145.696 160.752 143.906 163.736 143.444C166.158 143.066 168.714 142.736 170.983 141.45C172.64 142.361 176.383 142.853 179.404 143.65C181.976 144.328 183.091 145.799 185.475 145.486C188.334 145.112 187.164 139.102 183.978 136.668C180.492 134.003 174.595 132.923 171.543 134.017ZM176.917 159.713C174.543 160.292 174.383 155.089 174.117 153.251C173.909 151.815 172.737 148.112 169.766 148.272C166.794 148.432 165.678 151.534 165.828 153.464C165.926 154.715 167.08 161.054 163.398 161.856C161.05 161.848 158.334 161.689 155.866 161.234C152.961 160.577 149.183 158.274 148.185 162.809C147.826 164.441 160.623 169.29 166.302 169.729C172.061 170.896 178.799 169.102 182.9 164.697C183.833 163.696 186.46 159.537 186.647 158.518C187.04 156.377 186.13 154.999 183.48 155.754C181.608 156.753 178.444 159.341 176.917 159.713Z" fill="#282828"/>
<path fill-rule="evenodd" clip-rule="evenodd" d="M193.116 125.998C190.153 129.059 185.207 129.937 181.265 128.296C171.143 124.068 176.097 110.882 183.903 107.34C184.879 107.097 186.181 106.521 187.369 106.39C187.476 106.337 187.71 106.49 187.993 106.346C196.601 107.306 198.561 120.664 193.116 125.998M160.468 126.782C157.145 131.188 150.967 132.547 145.919 130.499C135.947 126.573 139.484 114.88 146.306 110.296C160.719 104.882 166.671 118.657 160.468 126.782M138.851 117.018C138.841 117.014 138.832 117.012 138.823 117.008C138.875 116.984 138.928 116.961 138.98 116.937C138.963 116.982 138.945 117.026 138.928 117.071C138.902 117.053 138.88 117.032 138.851 117.018M199.977 112.256C199.163 112.257 197.988 112.391 197.314 112.955C195.653 107.355 189.522 102.173 184.19 105.952C179.992 107.302 176.876 110.296 175.105 114.276C171.912 112.377 166.892 113.188 164.123 115.698C162.31 109.709 157.847 107.611 152.535 107.302C146.738 106.353 140.959 111.981 139.156 116.496C137.657 116.326 135.417 115.849 134.007 116.774C124.853 114.374 108.85 113.051 106.989 114.384C105.663 114.893 104.935 118.022 106.788 118.191C108.402 117.962 106.599 115.898 108.226 115.673C116.896 115.136 125.311 116.881 133.889 117.614C134.655 118.643 137.129 118.988 138.449 118.574C136.37 126.234 140.858 131.445 147.583 133.006C157.996 135.397 167.055 126.085 164.332 116.4C167.486 114.831 171.114 114.898 174.551 115.724C168.809 136.85 202.843 135.902 197.527 113.679C201.065 115.438 201.833 112.611 199.977 112.256" fill="#282828"/>
</svg>
